<svg width="472" height="104" viewBox="0 0 472 104" fill="none" xmlns="http://www.w3.org/2000/svg">
<g filter="url(#filter0_d_395_19662)">
<rect x="20" y="16" width="432" height="64" rx="8" fill="#FFF2F6"/>
<rect x="20.5" y="16.5" width="431" height="63" rx="7.5" stroke="#FFCCDC"/>
<path d="M64.0673 56.9425L53.4155 37.1612C52.6605 35.7587 50.6492 35.7587 49.8936 37.1612L39.2423 56.9425H39.2423C38.7187 57.9151 39.0826 59.128 40.0552 59.6516C40.3457 59.808 40.6705 59.8902 41.0005 59.8906H62.3061V59.8906C63.4107 59.8908 64.3062 58.9955 64.3064 57.8909C64.3064 57.5599 64.2243 57.234 64.0673 56.9425V56.9425ZM51.6548 56.8281V56.8281C50.9645 56.8281 50.4048 56.2685 50.4048 55.5781C50.4048 54.8878 50.9645 54.3281 51.6548 54.3281C52.3452 54.3281 52.9048 54.8878 52.9048 55.5781V55.5781V55.5781C52.9048 56.2685 52.3452 56.8281 51.6548 56.8281V56.8281ZM53.0123 44.2563L52.6536 51.8813C52.6536 52.4335 52.2059 52.8813 51.6536 52.8813C51.1013 52.8813 50.6536 52.4335 50.6536 51.8813L50.2948 44.2594V44.2594C50.2617 43.51 50.8422 42.8757 51.5916 42.8425C51.6072 42.8418 51.6229 42.8414 51.6386 42.8413H51.6517V42.8413C52.4021 42.8409 53.0108 43.4489 53.0112 44.1993C53.0112 44.2195 53.0107 44.2398 53.0098 44.26L53.0123 44.2563Z" fill="#FF0050"/>
<path d="M90.408 55.216C89.58 55.216 88.83 55.078 88.158 54.802C87.486 54.526 86.91 54.112 86.43 53.56C85.962 53.008 85.596 52.33 85.332 51.526C85.068 50.722 84.936 49.786 84.936 48.718C84.936 47.662 85.068 46.732 85.332 45.928C85.596 45.112 85.962 44.428 86.43 43.876C86.91 43.324 87.486 42.91 88.158 42.634C88.83 42.358 89.58 42.22 90.408 42.22C91.236 42.22 91.986 42.358 92.658 42.634C93.33 42.91 93.906 43.324 94.386 43.876C94.866 44.428 95.232 45.112 95.484 45.928C95.748 46.732 95.88 47.662 95.88 48.718C95.88 49.786 95.748 50.722 95.484 51.526C95.232 52.33 94.866 53.008 94.386 53.56C93.906 54.112 93.33 54.526 92.658 54.802C91.986 55.078 91.236 55.216 90.408 55.216ZM90.408 53.11C91.308 53.11 92.022 52.81 92.55 52.21C93.09 51.61 93.36 50.77 93.36 49.69V47.746C93.36 46.666 93.09 45.826 92.55 45.226C92.022 44.626 91.308 44.326 90.408 44.326C89.508 44.326 88.788 44.626 88.248 45.226C87.72 45.826 87.456 46.666 87.456 47.746V49.69C87.456 50.77 87.72 51.61 88.248 52.21C88.788 52.81 89.508 53.11 90.408 53.11ZM90.642 41.608L89.256 40.924L90.966 37.558L92.91 38.53L90.642 41.608ZM98.1465 41.68H100.45V47.152H100.522C100.69 46.612 101.008 46.186 101.476 45.874C101.944 45.55 102.49 45.388 103.114 45.388C104.314 45.388 105.226 45.814 105.85 46.666C106.486 47.506 106.804 48.712 106.804 50.284C106.804 51.868 106.486 53.086 105.85 53.938C105.226 54.79 104.314 55.216 103.114 55.216C102.49 55.216 101.944 55.054 101.476 54.73C101.02 54.406 100.702 53.974 100.522 53.434H100.45V58.6H98.1465V41.68ZM102.376 53.308C102.976 53.308 103.462 53.11 103.834 52.714C104.206 52.318 104.392 51.784 104.392 51.112V49.492C104.392 48.82 104.206 48.286 103.834 47.89C103.462 47.482 102.976 47.278 102.376 47.278C101.824 47.278 101.362 47.416 100.99 47.692C100.63 47.968 100.45 48.334 100.45 48.79V51.778C100.45 52.27 100.63 52.648 100.99 52.912C101.362 53.176 101.824 53.308 102.376 53.308ZM112.737 55.216C112.041 55.216 111.417 55.102 110.865 54.874C110.325 54.634 109.863 54.304 109.479 53.884C109.107 53.452 108.819 52.936 108.615 52.336C108.411 51.724 108.309 51.04 108.309 50.284C108.309 49.54 108.405 48.868 108.597 48.268C108.801 47.668 109.089 47.158 109.461 46.738C109.833 46.306 110.289 45.976 110.829 45.748C111.369 45.508 111.981 45.388 112.665 45.388C113.397 45.388 114.033 45.514 114.573 45.766C115.113 46.018 115.557 46.36 115.905 46.792C116.253 47.224 116.511 47.728 116.679 48.304C116.859 48.868 116.949 49.474 116.949 50.122V50.878H110.703V51.112C110.703 51.796 110.895 52.348 111.279 52.768C111.663 53.176 112.233 53.38 112.989 53.38C113.565 53.38 114.033 53.26 114.393 53.02C114.765 52.78 115.095 52.474 115.383 52.102L116.625 53.488C116.241 54.028 115.713 54.454 115.041 54.766C114.381 55.066 113.613 55.216 112.737 55.216ZM112.701 47.116C112.089 47.116 111.603 47.32 111.243 47.728C110.883 48.136 110.703 48.664 110.703 49.312V49.456H114.555V49.294C114.555 48.646 114.393 48.124 114.069 47.728C113.757 47.32 113.301 47.116 112.701 47.116ZM118.977 41.68H121.281V49.708H121.371L122.613 48.016L124.719 45.604H127.329L124.089 49.24L127.671 55H124.935L122.523 50.788L121.281 52.138V55H118.977V41.68ZM129.084 41.68H131.388V49.708H131.478L132.72 48.016L134.826 45.604H137.436L134.196 49.24L137.778 55H135.042L132.63 50.788L131.388 52.138V55H129.084V41.68ZM141.95 55C141.158 55 140.552 54.796 140.132 54.388C139.724 53.968 139.52 53.374 139.52 52.606V47.44H138.134V45.604H138.854C139.202 45.604 139.436 45.526 139.556 45.37C139.688 45.202 139.754 44.956 139.754 44.632V43.03H141.824V45.604H143.75V47.44H141.824V53.164H143.606V55H141.95ZM152.018 55L148.886 45.604H151.154L152.468 49.654L153.386 53.002H153.512L154.43 49.654L155.708 45.604H157.904L154.754 55H152.018ZM160.593 44.236C160.113 44.236 159.765 44.128 159.549 43.912C159.345 43.696 159.243 43.42 159.243 43.084V42.724C159.243 42.388 159.345 42.112 159.549 41.896C159.765 41.68 160.113 41.572 160.593 41.572C161.061 41.572 161.403 41.68 161.619 41.896C161.835 42.112 161.943 42.388 161.943 42.724V43.084C161.943 43.42 161.835 43.696 161.619 43.912C161.403 44.128 161.061 44.236 160.593 44.236ZM159.441 45.604H161.745V55H159.441V45.604ZM166.72 55C165.928 55 165.346 54.802 164.974 54.406C164.602 54.01 164.416 53.452 164.416 52.732V41.68H166.72V53.164H167.962V55H166.72ZM171.888 55C171.096 55 170.514 54.802 170.142 54.406C169.77 54.01 169.584 53.452 169.584 52.732V41.68H171.888V53.164H173.13V55H171.888ZM181.787 55C181.283 55 180.881 54.856 180.581 54.568C180.293 54.268 180.113 53.872 180.041 53.38H179.933C179.777 53.992 179.459 54.454 178.979 54.766C178.499 55.066 177.905 55.216 177.197 55.216C176.237 55.216 175.499 54.964 174.983 54.46C174.467 53.956 174.209 53.284 174.209 52.444C174.209 51.472 174.557 50.752 175.253 50.284C175.949 49.804 176.939 49.564 178.223 49.564H179.825V48.88C179.825 48.352 179.687 47.944 179.411 47.656C179.135 47.368 178.691 47.224 178.079 47.224C177.539 47.224 177.101 47.344 176.765 47.584C176.441 47.812 176.165 48.088 175.937 48.412L174.569 47.188C174.917 46.648 175.379 46.216 175.955 45.892C176.531 45.556 177.293 45.388 178.241 45.388C179.513 45.388 180.479 45.676 181.139 46.252C181.799 46.828 182.129 47.656 182.129 48.736V53.164H183.065V55H181.787ZM177.971 53.542C178.487 53.542 178.925 53.428 179.285 53.2C179.645 52.972 179.825 52.636 179.825 52.192V50.95H178.349C177.149 50.95 176.549 51.334 176.549 52.102V52.408C176.549 52.792 176.669 53.08 176.909 53.272C177.161 53.452 177.515 53.542 177.971 53.542Z" fill="#00003C"/>
<path d="M419.28 42.2197C418.987 41.9268 418.513 41.9268 418.22 42.2197C417.927 42.5126 417.927 42.9874 418.22 43.2803L422.939 48L418.22 52.7197C417.927 53.0126 417.927 53.4874 418.22 53.7803C418.513 54.0732 418.987 54.0732 419.28 53.7803L424 49.0607L428.72 53.7803C429.013 54.0732 429.487 54.0732 429.78 53.7803C430.073 53.4874 430.073 53.0126 429.78 52.7197L425.061 48L429.78 43.2803C430.073 42.9874 430.073 42.5126 429.78 42.2197C429.487 41.9268 429.013 41.9268 428.72 42.2197L424 46.9393L419.28 42.2197Z" fill="#00003C"/>
</g>
<defs>
<filter id="filter0_d_395_19662" x="0" y="0" width="472" height="104" filterUnits="userSpaceOnUse" color-interpolation-filters="sRGB">
<feFlood flood-opacity="0" result="BackgroundImageFix"/>
<feColorMatrix in="SourceAlpha" type="matrix" values="0 0 0 0 0 0 0 0 0 0 0 0 0 0 0 0 0 0 127 0" result="hardAlpha"/>
<feOffset dy="4"/>
<feGaussianBlur stdDeviation="10"/>
<feColorMatrix type="matrix" values="0 0 0 0 1 0 0 0 0 0 0 0 0 0 0.313726 0 0 0 0.15 0"/>
<feBlend mode="normal" in2="BackgroundImageFix" result="effect1_dropShadow_395_19662"/>
<feBlend mode="normal" in="SourceGraphic" in2="effect1_dropShadow_395_19662" result="shape"/>
</filter>
</defs>
</svg>
