<svg width="288" height="74" viewBox="0 0 288 74" fill="none" xmlns="http://www.w3.org/2000/svg">
<g clip-path="url(#clip0_129_5115)">
<path d="M88.0501 50.9871V45.2854C91.0688 46.3477 94.2397 46.9166 97.4402 46.9701C101.291 46.9701 103.021 45.6331 103.021 43.6486C103.021 41.7901 101.982 40.8008 98.6958 40.3212L95.6919 39.8475C90.6274 39.1581 87.8818 36.6939 87.8818 31.8196C87.8818 26.6815 91.8229 22.7545 99.609 22.7545C102.692 22.7714 105.76 23.1906 108.735 24.0016V29.5713C105.991 28.6339 103.115 28.14 100.216 28.1085C96.4489 28.1085 94.7187 29.2716 94.7187 31.2561C94.7187 33.0247 95.758 34.02 99.0443 34.4936L101.988 34.9253C107.005 35.7047 109.798 38.2527 109.798 43.0851C109.798 48.481 105.863 52.2821 97.9028 52.2821C94.5787 52.2422 91.2712 51.8075 88.0501 50.9871Z" fill="#1B1C89"/>
<path d="M119.819 43.4748V51.8684H113.463V21.2916H119.819V38.2527H122.294C124.22 35.9176 125.914 33.4018 127.353 30.7405H134.49C132.582 34.2653 130.307 37.5792 127.701 40.6269C130.334 44.1991 132.692 47.965 134.754 51.8924H127.347C125.86 48.9706 124.155 46.1648 122.246 43.4988L119.819 43.4748Z" fill="#1B1C89"/>
<path d="M145.298 52.2401C139.242 52.2401 135.998 50.0818 135.998 45.849C135.998 41.832 138.551 39.5478 144.307 39.4578L149.113 39.3319C149.113 36.0045 147.815 34.8833 144.613 34.8833C142.211 34.9392 139.827 35.3019 137.518 35.9625V31.346C140.318 30.7195 143.174 30.3721 146.043 30.3088C152.141 30.3088 155.253 33.1566 155.253 38.9422V51.071C151.982 51.7918 148.647 52.1835 145.298 52.2401ZM145.863 48.1392C146.954 48.1443 148.042 48.0276 149.107 47.7915V42.8692L146.037 42.9592C143.267 43.0011 142.096 43.9064 142.096 45.5492C142.12 47.5757 143.435 48.1392 145.863 48.1392Z" fill="#1B1C89"/>
<path d="M168.963 52.1922C163.682 52.1922 160.738 49.7341 160.738 44.596V35.3989H157.884V30.7405H160.744V25.7283L167.022 24.3074V30.7405H172.297V35.3989H167.022V43.259C167.022 46.0648 167.971 47.1021 170.627 47.144C171.193 47.1579 171.758 47.1137 172.315 47.0121V51.8924C171.208 52.0894 170.087 52.1897 168.963 52.1922Z" fill="#1B1C89"/>
<path d="M185.442 52.1922C180.161 52.1922 177.223 49.7341 177.223 44.596V35.3989H174.364V30.7405H177.223V25.7283L183.495 24.3074V30.7405H188.77V35.3989H183.495V43.259C183.495 46.0648 184.445 47.1021 187.1 47.144C187.666 47.1579 188.231 47.1137 188.788 47.0121V51.8924C187.684 52.089 186.564 52.1893 185.442 52.1922Z" fill="#1B1C89"/>
<path d="M192.14 43.6906V30.7405H198.503V43.1271C198.503 46.4126 199.884 47.2759 202.396 47.2759C203.41 47.2508 204.419 47.1059 205.399 46.8442V30.7405H211.81V51.0291C208.493 51.7319 205.118 52.1333 201.729 52.2282C195.433 52.2402 192.14 49.4343 192.14 43.6906Z" fill="#1B1C89"/>
<path d="M229.232 35.3989C228.375 35.2442 227.507 35.158 226.637 35.1411C225.372 35.1534 224.111 35.2981 222.876 35.5728V51.8924H216.538V31.7297C219.486 30.8323 222.546 30.354 225.628 30.3088C226.843 30.3243 228.057 30.4104 229.262 30.5666L229.232 35.3989Z" fill="#1B1C89"/>
<path d="M232.458 21.8432H238.947V27.2391H232.458V21.8432ZM238.905 51.8924H232.543V30.7404H238.905V51.8924Z" fill="#1B1C89"/>
<path d="M243.651 31.9935C247.103 30.9468 250.683 30.3799 254.291 30.3088C260.563 30.3088 263.507 33.1566 263.507 38.9003V51.8924H257.198V39.4578C257.198 36.1783 255.817 35.315 253.305 35.315C252.186 35.319 251.075 35.5095 250.019 35.8785V51.8924H243.651V31.9935Z" fill="#1B1C89"/>
<path d="M268.145 31.9935C271.597 30.9472 275.177 30.3803 278.784 30.3088C285.056 30.3088 288 33.1566 288 38.9003V51.8924H281.68V39.4578C281.68 36.1783 280.298 35.315 277.787 35.315C276.668 35.3196 275.557 35.5101 274.501 35.8785V51.8924H268.145V31.9935Z" fill="#1B1C89"/>
<path d="M42.0486 30.3987C43.6289 30.3939 45.1945 30.7019 46.6548 31.305C48.115 31.908 49.4409 32.7942 50.5556 33.9121L57.5967 40.9447C57.8935 41.2415 58.0602 41.6436 58.0602 42.0629C58.0602 42.4821 57.8935 42.8843 57.5967 43.181L56.4372 44.3442L36.7077 64.0692L34.581 66.1736C34.3098 66.4474 34.1578 66.8168 34.1578 67.2018C34.1578 67.5867 34.3098 67.9562 34.581 68.23L39.9459 73.5779C40.2193 73.8481 40.5885 73.9997 40.9732 73.9997C41.358 73.9997 41.7272 73.8481 42.0006 73.5779L72.6401 43.0012C72.874 42.7789 73.0281 42.4861 73.0787 42.1678C73.1054 41.9566 73.0835 41.7421 73.0148 41.5406C72.9461 41.3391 72.8324 41.1558 72.6822 41.0047L56.275 24.6011C54.7792 23.1018 52.9999 21.9137 51.0405 21.1058C49.081 20.2979 46.9803 19.8862 44.8602 19.8947H40.3664C39.2 19.8954 38.0812 20.3567 37.2544 21.1777L28.0806 30.3987H42.0486Z" fill="#1B1C89"/>
<path d="M22.5113 40.2311L15.6865 33.3962C15.4881 33.1996 15.3357 32.9617 15.2402 32.6995C15.1446 32.4373 15.1083 32.1573 15.1338 31.8794C15.1896 31.4225 15.4018 30.999 15.7346 30.6803L16.5997 29.799L38.6722 7.7837C38.8079 7.64889 38.9156 7.48866 38.989 7.31221C39.0625 7.13575 39.1003 6.94656 39.1003 6.75548C39.1003 6.5644 39.0625 6.37521 38.989 6.19876C38.9156 6.0223 38.8079 5.86207 38.6722 5.72726L33.2952 0.421291C33.0219 0.15109 32.6527 -0.000488281 32.2679 -0.000488281C31.8832 -0.000488281 31.514 0.15109 31.2406 0.421291L0.444809 31.136C0.212384 31.3609 0.0604115 31.6558 0.0122497 31.9753C-0.0157763 32.1866 0.0054235 32.4014 0.0741964 32.6032C0.142969 32.8049 0.25746 32.9881 0.408762 33.1384L16.828 49.524C18.3232 51.0242 20.1023 52.2128 22.0619 53.0208C24.0215 53.8287 26.1225 54.2399 28.2427 54.2304H32.6704C33.2472 54.2306 33.8184 54.1174 34.3513 53.8972C34.8843 53.6771 35.3685 53.3543 35.7764 52.9474L44.9924 43.7504H31.0183C29.4381 43.7508 27.8733 43.4402 26.4135 42.8363C24.9538 42.2324 23.6277 41.3471 22.5113 40.2311Z" fill="#1B1C89"/>
</g>
<defs>
<clipPath id="clip0_129_5115">
<rect width="288" height="74" fill="white" transform="translate(0.000244141)"/>
</clipPath>
</defs>
</svg>
