<svg width="80" height="80" viewBox="0 0 80 80" fill="none" xmlns="http://www.w3.org/2000/svg">
<g clip-path="url(#clip0_22_5855)">
<path d="M45.8 32.7118C47.4971 32.7066 49.1784 33.038 50.7465 33.687C52.3146 34.3359 53.7384 35.2895 54.9355 36.4924L62.4968 44.0601C62.8155 44.3795 62.9946 44.8122 62.9946 45.2634C62.9946 45.7145 62.8155 46.1473 62.4968 46.4666L61.2517 47.7182L40.0646 68.9439L37.7807 71.2084C37.4895 71.5031 37.3263 71.9006 37.3263 72.3149C37.3263 72.7291 37.4895 73.1267 37.7807 73.4213L43.542 79.1761C43.8355 79.4669 44.232 79.63 44.6452 79.63C45.0584 79.63 45.4549 79.4669 45.7484 79.1761L78.6517 46.273C78.9028 46.0339 79.0683 45.7188 79.1226 45.3763C79.1513 45.149 79.1278 44.9182 79.054 44.7014C78.9802 44.4845 78.8581 44.2873 78.6968 44.1247L61.0775 26.4731C59.4711 24.8597 57.5604 23.5812 55.4562 22.7118C53.352 21.8424 51.0961 21.3995 48.8194 21.4086H43.9936C42.741 21.4094 41.5396 21.9057 40.6517 22.7893L30.8 32.7118H45.8Z" fill="#1B1C89"/>
<path d="M24.8193 43.2924L17.4903 35.9376C17.2773 35.726 17.1136 35.47 17.011 35.1878C16.9084 34.9057 16.8694 34.6043 16.8967 34.3053C16.9566 33.8137 17.1846 33.3579 17.5419 33.015L18.4709 32.0666L42.1742 8.37642C42.3199 8.23135 42.4355 8.05893 42.5144 7.86905C42.5933 7.67918 42.6339 7.47558 42.6339 7.26997C42.6339 7.06435 42.5933 6.86077 42.5144 6.67089C42.4355 6.48101 42.3199 6.30859 42.1742 6.16352L36.4 0.453868C36.1064 0.163111 35.7099 0 35.2967 0C34.8836 0 34.4871 0.163111 34.1935 0.453868L1.12255 33.5054C0.872954 33.7474 0.709754 34.0647 0.658034 34.4086C0.627938 34.6359 0.650704 34.8671 0.724557 35.0842C0.798411 35.3013 0.921361 35.4984 1.08384 35.6602L18.7161 53.2924C20.3218 54.9067 22.2324 56.1857 24.3367 57.0552C26.4411 57.9246 28.6973 58.3671 30.9742 58.3569H35.729C36.3484 58.357 36.9618 58.2352 37.5341 57.9983C38.1064 57.7614 38.6264 57.4141 39.0645 56.9762L48.9613 47.0795H33.9548C32.2579 47.08 30.5775 46.7457 29.0099 46.0959C27.4423 45.446 26.0182 44.4934 24.8193 43.2924Z" fill="#1B1C89"/>
</g>
<defs>
<clipPath id="clip0_22_5855">
<rect width="80" height="80" fill="white"/>
</clipPath>
</defs>
</svg>
